<?xml version="1.0" ?><!DOCTYPE svg  PUBLIC '-//W3C//DTD SVG 1.1//EN'  'http://www.w3.org/Graphics/SVG/1.1/DTD/svg11.dtd'><svg enable-background="new 0 0 126 126" id="Layer_1" version="1.1" viewBox="0 0 126 126" xml:space="preserve" xmlns="http://www.w3.org/2000/svg" xmlns:xlink="http://www.w3.org/1999/xlink"><g><g><g><path d="M119.3192,85.6765L68.2191,54.0202c-1.1938-0.7394-2.6974-0.7626-3.9135-0.0605L6.7315,87.2046     c-1.2685,0.7324-1.271,2.5624-0.0045,3.2985l52.8416,30.7048c1.1808,0.6859,2.6385,0.6882,3.8212,0.0051l55.8788-32.2659     C120.5164,88.2264,120.5441,86.4349,119.3192,85.6765z" fill="#F3F6FD"/><g><path d="M45.5662,112.1619c-0.1536-0.1568-0.3806-0.0959-0.4884-0.242      c-0.1314-0.1791,0.1573-0.289,0.5709-0.4267c0.0575-0.0014,0.1255-0.014,0.1824-0.0293      c0.5287-0.127,1.1275-0.2113,1.6756-0.2722c0.3423-0.0363,0.6442-0.0884,0.9061-0.1419      c1.0903,0.6244,2.9604,1.2786,3.062,1.4173c0.1134,0.1549,0.7148,0.7086,0.9483,0.8548c0.222,0.1438,1.083,0.7598,1.083,0.7598      c0.075,0.0093,0.138,0.0163,0.2011,0.0228c-0.0046,0.033-0.0553,0.0568-0.082,0.1266c-0.0528,0.1391-0.0597,0.289-0.0318,0.4458      c0.0004,0.0135,0.0062,0.0219,0.0177,0.0242l0.0116,0.0028c0.0411,0.0288,0.1329,0.0349,0.2009,0.0084l0.0222-0.0228      l0.0985-0.1433c0.0164-0.0307,0.0902-0.0493,0.1594-0.0344c0.023,0.0051,0.0465,0.0237,0.0585,0.04      c0.0616,0.1363,0.1664,0.2005,0.3079,0.3266c0.0058,0.0079,0.0235,0.0186,0.0294,0.027      c0.0637,0.0205,0.1325,0.0214,0.1889-0.0079l0.0059,0.0084c0.0526,0.0316,0.1955,0.0279,0.2404-0.0033      c0.0231,0.0047,0.0518,0.0037,0.0687,0.0009c0.0687,0.0009,0.091-0.0219,0.1187-0.0498      c0.0111-0.0116,0.0163-0.0312-0.0012-0.0419c0.1552,0.0126,0.1411-0.0726,0.135-0.081      c-0.1148-0.1959-0.1264-0.3834-0.5706-0.6705c-0.0293-0.027-0.0643-0.0484-0.0939-0.0749l-0.0647-0.0624      c0.0446-0.0312,0.0614-0.0484,0.0614-0.0484c-0.004-0.1242-1.5672-1.6048-1.5947-1.7477      c-0.0144-0.0991-1.6191-1.2521-3.0011-1.864c0.0882-0.1042,0.1595-0.2057,0.208-0.3118      c0.2578-0.5486,2.8677-3.1994,2.8677-3.1994l6.2413-5.4045l9.1039,3.4521l-3.128-8.7426      c1.1703,0.0582,2.3902,0.0661,3.6202,0.0209c12.386-0.4262,22.0872-5.618,21.6736-11.5916      C90.165,78.5127,79.792,74.0207,67.406,74.4469c-12.3856,0.4262-22.0929,5.6097-21.6793,11.5832      c0.1644,2.3535,1.8675,4.4743,4.64,6.1587l-1.1709,0.8394L38.789,93.5564l12.3957,4.7056      c-2.7423,4.8517-3.6195,4.6363-4.568,6.0038c-0.5428,0.7822-0.0995,1.5974-0.0995,1.5974      c-0.276,0.7091-1.691,1.9975-4.3474,3.4995c-0.2533,0.1447-0.4611,0.2857-0.6231,0.4081      c-0.3871,0.0493-0.8283,0.128-1.2834,0.2215l5.1947,3.0198C45.7107,112.7119,45.8203,112.4044,45.5662,112.1619z" fill="#E1E9F4"/></g><g><polygon fill="#FAFCFF" points="116.8526,90.3461 88.9592,74.1361 79.1232,79.8151 107.017,96.025 106.4265,96.3658       78.5328,80.1559 47.8544,97.868 75.7494,114.0789 75.159,114.4197 47.2639,98.2088 37.4332,103.8848 65.3287,120.0957       64.7382,120.4366 7.1393,86.9641 7.7297,86.6228 36.9681,103.6144 46.7988,97.9389 17.5602,80.9473 18.1507,80.606       47.3893,97.5981 57.3104,91.8699 28.0716,74.8783 28.4919,74.6355 57.7307,91.6271 67.7369,85.8501 38.4978,68.858       38.9128,68.6187 68.1518,85.6107 78.0676,79.8855 48.8284,62.8934 49.4188,62.5526 78.6582,79.5447 88.4941,73.8657       59.2546,56.8736 59.8451,56.5328 117.4431,90.0053     "/></g></g><g><g><g><g><circle cx="71.5985" cy="66.3818" fill="#1E72C6" r="20.9743"/></g><g><g><path d="M54.9991,55.7386c0.9301-0.8768,1.2238,0.2266,1.5447,0.3288         c0.6483,0.2035,0.4603,0.4364,0.2444,0.6228c-0.4313,0.3471-0.3961,0.8161-0.3018,1.442         c0.3512-0.1846,0.6646-0.2839,0.8474-0.4622c1.8439-1.7993,0.2033-1.3467,4.1488-1.5714         c0.3443-0.3156,0.6123-0.5609,0.9082-0.8322c0.1466,0.1214,0.2794,0.2309,0.4402,0.364         c0.8455-0.3053,0.4989-0.3296,2.243-0.4553c0.2934-0.0218,0.6864,0.055,0.8794-0.0428         c0.6776-0.3403,1.5576-0.0875,2.3686-0.0207c0.0615,0.0056,0.1413,0.1101,0.2399,0.1883         c-0.2511,0.0672-0.4527,0.1213-0.7957,0.213c0.8916,0.1744,1.6405,0.3121,2.4921,0.1521         c-1.0121-0.3804-0.7574-0.7388-0.5649-1.0767c0.2434-0.0024,0.4866-0.0051,0.7206-0.0074         c-0.014-0.062-0.028-0.1244-0.0337-0.1844c-0.8144-0.105-1.621-0.2124-2.4251-0.3566         c4.518-0.4492,2.8243,1.0016,6.227,0.6751c0.5183-0.0496,0.5351-0.3203,0.131-0.6447         c0.2936-0.0929,0.2204-0.2458,0.0742-0.4688c-0.1012-0.1459-0.0587-0.4085,0.084-0.4712         c0.5688-0.247,0.6639-0.6747,0.842-1.1973c-1.4453,0.3066-1.4039,0.5057-1.8894-0.1125         c0.3028-0.1505,0.5946-0.2954,0.8855-0.4396c-0.1635-0.2217-0.0627-0.5445-0.3418-0.7365         c-0.1689-0.1148-0.9099-0.531-1.104-0.4646c-0.2973,0.0939-1.1023,0.4965-1.2774,0.4961         c-0.9957,0.0003-0.4335,1.0296-1.806,0.7017c-0.6556-0.1659-1.1871-0.0954-1.5064,0.2601         c-0.479,0.5308-0.8907,0.3838-1.2716,0.3843c-0.0135-0.7014-0.2524-0.4509,1.0859-1.0041         c-0.2759-0.2571-0.6812-0.4997-0.7189-0.7029c-0.0656-0.3609-0.117-0.6643-0.5735-0.8349         c0.0799-0.2051,0.192-0.681,0.4399-0.699c3.6024-0.2741,2.6548-0.0646,4.5383,0.1157l0.1263,0.0094         c-0.1017,0.1647-0.2754,0.2881-0.5623,0.2663c0.1004,0.0342,0.1931,0.0658,0.2936,0.1         c-0.0158,0.0201-0.0317,0.0406-0.0561,0.0601c0.5191,0.0351,0.6419,0.1677,1.3637,0.3036         c1.3568,0.1278,1.1996,0.0711,1.5026,0.1604c-0.0965,0.0061-0.1913,0.0331-0.2871,0.0877         c0.2927,0.306,1.3733,0.4371,0.786,0.919c0.246,0.2208,0.4723,0.424,0.7257,0.6516c0.0689-0.135,0.1186-0.2321,0.2094-0.4098         c0.2245,0.2101,0.3764,0.352,0.5351,0.5007c1.3421-0.3703,0.21-1.0816,1.1053-0.9889         c0.1655,0.1506,0.3047,0.2772,0.4439,0.4041c-0.0578,0.0468-0.1465,0.1184-0.2265,0.1832l0.0748,0.0882         c0.4709-0.0383,0.9406-0.0763,1.5394-0.125c-0.4148-0.1675-0.7909-0.239-0.563-0.4884         c0.0275-0.0348-0.0925-0.1406-0.1457-0.2152c-0.0517-0.0798-0.1693-0.1921-0.1312-0.2341         c0.0405-0.0499,0.2206-0.0316,0.3226-0.0624c0.956-0.3103,0.3735-0.1483,0.5347-0.6853         c-0.1098-0.0521-0.2123-0.101-0.322-0.153c-0.0144-0.0628-0.0366-0.1277-0.0595-0.1897l0.3538-0.0088         c-0.1891-0.2305-0.3423-0.4124-0.5867-0.4324c-0.1994-0.5328,0.6039-0.2979,0.9513-0.3065         c0.4015-0.0105,0.617-0.2612,1.0114-0.2819c0.72-0.0394,1.3749,0.6613,2.1087,0.83l-0.0457,0.0757         c1.2592,0.5237,1.1793,0.4829,1.2817,0.5505c-9.8643-7.2629-23.6384-4.5482-30.1043,5.5431         c0.1081,0.0643,0.2168,0.1275,0.3211,0.2051C54.5116,55.4122,54.7552,55.5752,54.9991,55.7386z" fill="#6B9EF9"/></g><g><path d="M52.4192,61.9171c0.3935,0.0236,0.3962,0.2823,0.5835,0.4069         c0.2197,0.1469,0.4098,0.3137,0.6306,0.485c0.1334-0.262,0.3023-0.3138,0.4854-0.1672         c0.9462,0.7641-0.41,1.1836-0.8085,1.766c-0.3031,0.4547-0.5032,0.9527-0.7703,1.4316         c-0.3214,0.5878,0.4743,0.401,0.7121,1.7352c0.1851,1.1155,0.7043,1.5452,1.6936,2.1194         c0.3981,0.2344,0.6114,0.5344,0.6835,0.8805c0.1875,0.8448,0.5303,1.6805,0.1991,2.5358         c-0.1989,0.5824,0.5605,1.999,0.2867,3.0756c-0.0159,0.0452,0.0488,0.1027,0.0797,0.1573         c0.5331,1.1202,0.4142,1.141,0.7666,1.2097c0.0528,0.0106,0.3205,0.6205,0.4908,0.9297         c0.105,0.1923,0.1128,0.3413-0.0921,0.4982c-0.1299,0.0924-0.1608,0.2589-0.1825,0.2996         c0.3503,0.2094,0.5928,0.3542,0.8419,0.5028l-0.133,0.0316c0.0227,0.1099,0.0003,0.2348,0.0692,0.3256         c0.2637,0.3557,0.6264,0.6838,0.8188,1.0585c0.1658,0.3283,0.3726,0.4602,0.7768,0.3934         c0.0964,0.1424,0.1817,0.2684,0.2726,0.4029c0.0019,0.0011,0.0038,0.0023,0.0057,0.0031         c0.1364-0.2813,0.2455-0.5065,0.3824-0.7888c-0.821-0.4152-0.1738-1.0351-0.2835-1.5736         c-0.6901-0.1662-0.765-0.3042-0.4196-0.7292c0.2966-0.3793-0.0736-0.9061-0.328-1.2702         c0.5566-0.2514,0.5225-0.078,0.4161-0.6935c0.4274-0.0411,1.0131,0.1684,1.2155-0.2785         c0.1489-0.3314,0.1006-0.6702-0.3465-0.9825c0.8277,0.0465,1.1522,0.1185,1.1412-0.5529         c-0.0041-0.1479,0.0326-0.296,0.0621-0.4419c0.0037-0.0231,0.0469-0.0412,0.0999-0.0793         c0.0397,0.0919,0.0759,0.1629,0.1275,0.2658c0.0842-0.0647,0.1629-0.0952,0.1761-0.1375         c0.4573-1.5918,0.1076-2.1268,1.831-2.4601c0.0945-0.017,0.2043-0.0504,0.2509-0.1028         c1.1254-1.2963,0.3903-1.5974,0.7582-2.2241c0.5446-0.9109,1.183-1.0217,0.8927-1.9385         c-0.0579-0.1706-0.6433-0.3873-0.7637-0.5203c-0.4391-0.4664-1.0687-0.5914-1.7841-0.5654         c-0.3153-0.6886-1.2018-0.6439-2.0193-0.8377c0.466-0.1508,0.6302-0.3837,0.439-0.6988         c-0.3132-0.525-0.5176-0.9141-0.8544-0.9709c-0.996-0.1703-1.1999-0.7109-1.8639-1.368         c-0.3858-0.36-1.3339-0.0609-2.0599-0.8807c-0.247,0.2211-0.4625,0.414-0.6789,0.6078         c-0.0286-0.0117-0.0571-0.0231-0.0913-0.0368c0.146-0.2051,0.2969-0.4171,0.4414-0.6203         c-0.9512-0.2362-1.1252,0.0783-1.831,0.567c-0.0043-0.0347-0.0025-0.0685-0.0008-0.1023         c-0.2584-0.1196-0.5029-0.2952-0.772-0.3418c-0.2571-0.045-0.5643-0.0142-0.6736-0.2008         c-0.2863-0.4957,0.2192-0.8526,0.4008-1.0811c0.1314-0.1592,0.1107-0.3664-0.2546-0.5069         c-0.2598-0.092-0.5358-0.1897-0.7949-0.2815c0.038-0.2861,0.2413-0.4546,0.5646-0.5933         c0.2545-0.1115,0.4223-0.3161,0.6427-0.4902c-1.3015-0.3934-1.0876,0.1394-1.9878,0.2001         c-0.1321,0.366-0.2547,0.7334-0.3652,1.103C52.0624,61.0366,52.4117,60.6892,52.4192,61.9171z" fill="#6B9EF9"/></g><g><path d="M86.8821,53.6569c-0.0732-0.2291-0.1009-0.4771-0.1502-0.7232         c-0.4472,0.1382-0.6064,0.3884-0.6763,0.6726c-0.1048,0.3942-0.3952,0.6597-0.9012,0.8075         c-0.1638,0.0476-0.3493,0.1563-0.4563,0.27c-0.6356,0.684-1.4698,1.1036-2.3928,1.4246         c-0.2322,0.0773-0.4569,0.1521-0.7564,0.2518c0.2111,0.2108,0.4224,0.3641,0.5416,0.5653         c0.0827,0.1461,0.1283,0.3614,0.0496,0.5348c-0.2679,0.6029-0.3049,0.6097-1.0776,0.6352         c-0.4919,0.0247-0.9725-0.0442-1.2742,0.1281c-0.2341,0.4391-0.3517,0.7485-0.5661,1.029         c-0.2938,0.3958-0.4568,0.7812-0.426,1.1705c0.2346,0.0248,0.5051-0.0086,0.6386,0.0774         c0.4518,0.3054,1.6377-0.0214,1.9947-0.5852c0.3213-0.507,0.8289-0.8313,1.2806-1.231         c0.4597-0.4062,0.8512-0.6685,1.4907-0.839c0.8101-0.2152,0.7981-0.2962,1.2801,0.1242         c0.1043,0.0908,0.2165,0.1745,0.3364,0.2554c0.3574,0.2608,0.9142,0.3633,0.6727,1.0579         c0.3753-0.3681,0.6278-0.6157,0.9053-0.8877c-0.27-0.1518-0.5357-0.3387-0.8504-0.4762         c-0.3487-0.1529-0.5073-0.6914-0.2809-0.9598c0.1703,0.0211,0.3333,0.0414,0.39,0.0484         c0.264,0.197,0.4917,0.3408,0.6797,0.5144c0.1366,0.1223,0.2775,0.269,0.2932,0.44         c0.0271,0.3783,0.1255,0.7005,0.4907,0.9027c0.0674,0.0391,0.1169,0.1076,0.1374,0.1777         c0.0465,0.1556,0.0629,0.3212,0.0985,0.5074c0.3143-0.2811,0.5238-0.4691,0.6286-0.5627         c-0.1077-0.2484-0.2046-0.4718-0.3398-0.7836c0.2646,0.0157,0.4486,0.045,0.4653,0.0243         c0.1279-0.163,0.2754-0.2393,0.4296-0.2813c0.1203,0.2815,0.3364,0.6466,0.3291,0.7518         c-0.0181,0.3379,0.4914,0.6652,0.8766,0.5782c0.1784-0.0373,0.3623-0.0822,0.5443-0.1249         c-0.7331-1.9981-1.774-3.8851-3.0901-5.5913c-0.1764,0.0746-0.3504,0.1581-0.5287,0.2463         C87.2181,54.0304,86.9862,53.9868,86.8821,53.6569z" fill="#6B9EF9"/><path d="M91.7344,60.5504c-1.9011,0.4464-1.2208,0.5017-1.7274,0.4546         c-2.813-0.3521-2.5301,0.3013-3.3624,0.6684c-1.2345-0.511-0.8065-0.3254-2.0149-0.879         c0.9194-1.1352-0.5826-1.0422-2.0921-0.5165c-3.9693,1.3612-1.9999-0.3939-4.4227,1.8614         c-0.33,0.3023,0.2594,0.3879-1.0167,1.1579c-1.4956,0.8909-1.7907,1.5069-2.219,2.0416         c-0.2399,0.2991-0.5582,0.5898-0.2964,0.9186c0.1204,0.1488-1.1388,2.1425-0.152,3.2668         c1.9025,2.1561,1.2274,1.8886,5.0398,0.8786c1.6754-0.4584,0.9743,0.3003,2.1672,0.1765         c1.0062-0.1011,0.1883,0.747,0.2089,0.8471c0.1097,0.5309-0.073,1.139,0.4041,1.5765         c0.582,0.5294,0.8127,1.8724,0.8516,1.9734c0.2564,0.6736-0.3696,0.5376-0.4918,0.9418         c-0.2292,0.7545-0.3371,1.4659,0.09,2.0938c0.2845,0.4196,0.3822,0.9409,0.5658,1.4154         c0.5024,1.2757,1.1551,1.4909,0.9531,2.4662c-0.0626,0.2794,0.1443,0.5056,0.5113,0.4317         c0.2247-0.0454,0.4545-0.1006,0.6836-0.1625c1.8971-1.6601,3.5282-3.6877,4.7673-6.0552         c1.9499-3.7257,2.6637-7.7685,2.2981-11.665c-0.0682-0.1324-0.139-0.2633-0.2192-0.3886         c-0.2573-0.4037-0.375-0.8852-0.5546-1.3309c-0.1656-0.3814-0.3354-0.7727-0.4958-1.1424         c0.2576-0.0406,0.4415-0.0702,0.493-0.0782c0.1398,0.1732,0.2735,0.339,0.4079,0.5059         c-0.1051-0.4918-0.2321-0.9778-0.3719-1.4603C91.7377,60.5479,91.7358,60.5499,91.7344,60.5504z" fill="#6B9EF9"/></g></g></g><g opacity="0.15"><path d="M82.7859,48.6436c3.9028,3.8091,6.329,9.1242,6.329,15.0083c0,11.5839-9.3906,20.9746-20.9745,20.9746       c-4.1144,0-7.949-1.1895-11.1875-3.2364c3.7803,3.6895,8.9458,5.9663,14.6455,5.9663c11.5839,0,20.9744-9.3907,20.9744-20.9746       C92.5729,58.9126,88.6652,52.3596,82.7859,48.6436z" fill="#2A2A5E"/></g></g><g><g><g><polygon fill="#DEE7F8" points="53.3868,40.9432 61.8628,45.7485 88.2251,32.4005       "/><polygon fill="#B6CBEA" points="63.3978,55.4258 61.8628,45.7485 88.2251,32.4005       "/><polygon fill="#9EB5DF" points="65.3333,47.8842 63.3978,55.4258 88.2251,32.4005       "/><polygon fill="#DEE7F8" points="73.876,52.556 65.3333,47.8842 88.2251,32.4005       "/></g></g><g><g><g><g><path d="M67.602,38.6695c0.1534-0.9354,2.2895-1.2251,2.2895-1.2251s1.7071-0.1074,2.4676-0.4109          c0.7605-0.3036,0.7724,0.4904,0.5863,0.8408c-0.186,0.3503-1.6208,1.9386-3.1311,1.6583l0.0028,0.1852          c0.002,0.1334-0.1001,0.2448-0.2359,0.2575l-1.5838,0.1476c-0.1159,0.0109-0.2271-0.0518-0.2722-0.1575          C67.628,39.737,67.4999,39.2919,67.602,38.6695z" fill="#2A2A5E"/><path d="M70.3423,22.3614c0,0-1.0617,1.2634-1.2539,2.8225c-0.3495,2.8344,0.6548,2.6793-1.3039,13.1907          c0,0,1.6579,0.969,2.5963-0.8134c0,0,2.2623-7.4478,2.6032-8.6123c0.0412,0.203,0.7826-3.1926,1.2033-5.085          C72.3822,23.4958,70.3423,22.3614,70.3423,22.3614z" fill="#3A3A77"/></g><g><path d="M74.8976,41.8278c0.1534-0.9354,2.2895-1.2251,2.2895-1.2251s1.7071-0.1074,2.4676-0.4109          c0.7605-0.3036,0.7723,0.4904,0.5863,0.8408s-1.6208,1.9386-3.1311,1.6583l0.0028,0.1852          c0.002,0.1334-0.1001,0.2448-0.2359,0.2575L75.293,43.281c-0.1159,0.0109-0.2271-0.0518-0.2722-0.1575          C74.9236,42.8953,74.7955,42.4502,74.8976,41.8278z" fill="#2A2A5E"/><path d="M76.7067,23.2604c-0.7113,1.3201-3.1689,0.5492-4.8145-0.1569          c-0.7707,1.9456-0.1777,3.7121,0.3914,4.7823c0.4859,0.9136,0.8445,1.8871,1.0114,2.908          c0.5766,3.5286,1.7258,10.7747,1.7258,10.7747c2.1557,0.8267,2.9106-0.5741,2.9106-0.5741L76.7067,23.2604z" fill="#4C4A8B"/></g></g><g><g><g><g><g><g><g><g><g><path d="M75.2502,7.5843c-0.0814-0.3704-0.4618-0.5897-0.8243-0.4783                 c-1.0463,0.321-2.9892,0.9373-2.9982,1.0886c0.0029,0.0743-0.1444,3.8289-0.0778,4.6805                 c0.0979,1.388,3.7485,0.7047,3.2252-0.2283c-0.3379-0.613-0.7204-1.0433-0.3809-1.3826                 c0.2219-0.2218,0.3618-0.0307,0.6263-0.2376C75.7007,10.3251,75.4647,8.5602,75.2502,7.5843z" fill="#ECB4BF"/><path d="M75.6714,13.4415c-0.4213-0.3179-0.8622-0.6886-1.2112-1.1077                 c-0.2447-0.2944-0.6283-0.4273-1.0094-0.393c-0.8066,0.0731-1.9373,0.0564-2.1082-0.7263                 c0,0-2.7952-0.1766-1.7839,3.4262c1.0113,3.6028,1.1439,6.3847,0.7836,7.7207c0,0,4.5603,4.3591,6.3645,0.8985                 c0,0-0.0055-5.5969,0.2263-6.6505C77.1354,15.6899,77.1771,14.5778,75.6714,13.4415z" fill="#6B9EF9"/></g></g></g></g></g></g></g></g><path d="M75.0993,6.254l-0.0078,0.0007c-0.153,0.0139-0.579,0.1247-1.4606,0.0244         c-1.987-0.2252-3.7157,1.1286-3.083,3.322c0.1186,0.4113,0.1475,1.6391,0.3764,1.8193         c0.6459,0.5082,1.4904,0.2501,1.8838,0.0914c0.155-0.0625,0.2262-0.2451,0.2076-0.4112         c-0.049-0.4391-0.0804-1.3083,0.4391-1.3127c0.421-0.0034,0.3063,0.8392,0.3063,0.8392l0.4849,0.0958         c-0.0006-0.3596-0.0079-0.6351-0.0168-0.8404c-0.0124-0.2814,0.2367-0.4086,0.445-0.5932         c0.1317-0.1168,0.2554-0.2241,0.3695-0.3246c0.4092-0.3605,0.6429-0.8782,0.6429-1.4236c0-0.2487,0-0.5203,0-0.754         C75.6867,6.4709,75.4143,6.2239,75.0993,6.254z" fill="#3A3A77"/></g></g><g><path d="M85.1122,14.5874c-0.0575,0.0061-0.1144,0.016-0.1703,0.0305l-0.5165,0.1376        c0.0547-0.0134,0.1014-0.0613,0.1274-0.1422c0.053-0.1653-0.0003-0.4034-0.1188-0.5317        c-0.0578-0.0625-0.1203-0.0868-0.1755-0.0769l-0.0002-0.0008l0.1124-0.0269c0.238-0.0666,0.152-0.1346,0.3012-0.3286        c0.1681-0.2185,0.3828-0.4148,0.6266-0.5973c0.0143-0.0107,0.0315-0.0172,0.0495-0.0187l0.0038-0.0003        c0.0769-0.0066,0.1435,0.0548,0.1417,0.1315c-0.0004,0.0156-0.005,0.0308-0.013,0.0443l-0.1461,0.2487        c-0.0317,0.0539-0.0081,0.124,0.0513,0.149c0.031,0.013,0.0661,0.0093,0.0955-0.0063        c0.2442-0.1299,0.4054-0.143,0.6777-0.2169c0.0185-0.005,0.0378-0.0069,0.057-0.0054        c0.0659,0.0052,0.1154,0.0626,0.1101,0.1275l0.0144-0.0014c0.0774-0.0074,0.1667,0.0933,0.1518,0.1685        c0.0202,0.007,0.0368,0.0221,0.0504,0.0407c0.0381,0.0524,0.0292,0.0903,0.0014,0.1457        c-0.0135,0.0267-0.0383,0.046-0.0671,0.0554c0.124,0.0877-0.0045,0.184-0.023,0.1929        C86.0868,14.2824,85.8137,14.5131,85.1122,14.5874z" fill="#ECB4BF"/><path d="M75.1111,15.8422c-0.4297-0.5132-0.0905-0.9386,0.3018-1.2175        c0.3592-0.2554,0.7905-0.3897,1.2306-0.4114c1.6127-0.0795,3.818,0.3545,4.0856,0.2441        c0.2998-0.1237,1.492-0.4262,1.8482-0.4593c0.3562-0.0331,1.7979-0.2391,1.7979-0.2391        c0.7068,0.3893,0.4035,0.9922,0.4035,0.9922c-0.1768,0.1601-3.3304,1.0043-3.5546,1.1688        C81,16.0846,75.8922,16.7753,75.1111,15.8422z" fill="#6B9EF9"/></g><g><path d="M64.4481,5.9589c0.0346,0.0463,0.066,0.0948,0.0934,0.1456l0.25,0.4724        c-0.0274-0.0492-0.0239-0.1161,0.0178-0.19c0.0853-0.1512,0.2962-0.2738,0.4709-0.274        c0.0851-0.0001,0.1454,0.0293,0.1756,0.0765l0.0007-0.0004l-0.0566-0.1007c-0.1129-0.2199-0.0045-0.2029,0.0364-0.4442        c0.0461-0.2717,0.0442-0.5626,0.0125-0.8654c-0.0019-0.0177-0.0088-0.0348-0.0199-0.0491l-0.0024-0.003        c-0.0474-0.0609-0.1377-0.0681-0.1928-0.0146c-0.0112,0.0109-0.0192,0.0246-0.0237,0.0396l-0.0832,0.2761        c-0.018,0.0598-0.0855,0.0901-0.1442,0.0636c-0.0306-0.0139-0.0518-0.0422-0.0603-0.0744        c-0.0706-0.2674-0.1706-0.3946-0.3014-0.6445c-0.0089-0.017-0.0206-0.0324-0.0348-0.0455        c-0.0486-0.0449-0.1243-0.0422-0.1683,0.0058l-0.0088-0.0115c-0.0471-0.0618-0.1817-0.0589-0.2268,0.0031        c-0.0189-0.0101-0.0412-0.012-0.0641-0.0094c-0.0643,0.0076-0.0861,0.0399-0.1079,0.098        C64,4.4409,64.0027,4.4722,64.0154,4.4996c-0.1486-0.0314-0.1319,0.1283-0.1259,0.1479        C64.0096,5.0368,64.0259,5.3938,64.4481,5.9589z" fill="#ECB4BF"/><path d="M70.3229,14.1486c0.6685-0.0334,0.7502-0.5712,0.6883-1.0485        c-0.0567-0.437-0.2512-0.8447-0.5343-1.1823c-1.0375-1.2372-2.8544-2.5602-2.9552-2.8315        c-0.113-0.304-0.7011-1.3841-0.9188-1.6679c-0.2177-0.2838-1.0462-1.4814-1.0462-1.4814        c-0.7659-0.2541-1.0022,0.378-1.0022,0.378c0.0026,0.2385,1.526,3.1255,1.5576,3.4018        C66.1437,9.993,69.1075,14.2094,70.3229,14.1486z" fill="#6B9EF9"/></g></g></g></g><g><path d="M41.7884,23.565c-0.6697,0-1.2887,0.1518-1.8446,0.43c-0.2779-3.2727-3.0196-5.8495-6.3677-5.8495     c-2.9185,0-5.3949,1.9581-6.1529,4.6237c-0.7202-0.4294-1.5793-0.6693-2.4764-0.6693c-2.7669,0-5.0032,2.2363-5.0032,4.9902     c0,2.7668,2.2363,5.0031,5.0032,5.0031h16.8416c2.35,0,4.2578-1.9075,4.2578-4.2703     C46.0462,25.4731,44.1384,23.565,41.7884,23.565z" fill="#DEE7F8"/><path d="M33.5724,19.0007c-2.8777,0-5.2193,2.3416-5.2193,5.2193c0,2.8784,2.3416,5.22,5.2193,5.22     c2.8784,0,5.22-2.3416,5.22-5.22C38.7924,21.3424,36.4508,19.0007,33.5724,19.0007z" fill="#E8EFF9"/><g><path d="M26.5301,23.2646c-0.482-0.2344-1.0159-0.3775-1.5869-0.3775c-2.0152,0-3.6547,1.6397-3.6547,3.6546      c0,2.0161,1.6395,3.6558,3.6547,3.6558c1.2575,0,2.3683-0.6385,3.0262-1.6083c-0.9433-1.2073-1.511-2.7218-1.511-4.369      C26.4583,23.895,26.4877,23.578,26.5301,23.2646z" fill="#E8EFF9"/><path d="M41.7829,23.9308c-0.3877,0-0.7544,0.0796-1.0999,0.2036c0.0003,0.029,0.0043,0.0568,0.0043,0.0858      c0,1.7687-0.6526,3.3844-1.7244,4.6305c0.569,0.9735,1.6138,1.6367,2.82,1.6367c1.8075,0,3.2782-1.4707,3.2782-3.2783      C45.061,25.4015,43.5904,23.9308,41.7829,23.9308z" fill="#E8EFF9"/></g></g><g><path d="M51.974,57.9592c-0.4514,0-0.8688,0.1023-1.2435,0.2899c-0.1874-2.2062-2.0356-3.9433-4.2925-3.9433     c-1.9674,0-3.6368,1.32-4.1478,3.1169c-0.4855-0.2894-1.0646-0.4512-1.6693-0.4512c-1.8652,0-3.3727,1.5075-3.3727,3.364     c0,1.8652,1.5075,3.3727,3.3727,3.3727H51.974c1.5841,0,2.8702-1.2859,2.8702-2.8786     C54.8442,59.2455,53.5582,57.9592,51.974,57.9592z" fill="#DEE7F8"/><path d="M46.4355,54.8824c-1.9399,0-3.5184,1.5785-3.5184,3.5184c0,1.9404,1.5785,3.5189,3.5184,3.5189     c1.9404,0,3.5189-1.5785,3.5189-3.5189C49.9544,56.4609,48.3759,54.8824,46.4355,54.8824z" fill="#E8EFF9"/><g><path d="M41.6881,57.7567c-0.3249-0.158-0.6848-0.2545-1.0698-0.2545c-1.3585,0-2.4637,1.1054-2.4637,2.4636      c0,1.3591,1.1052,2.4644,2.4637,2.4644c0.8477,0,1.5965-0.4304,2.04-1.0842c-0.6359-0.8139-1.0186-1.8348-1.0186-2.9452      C41.6397,58.1817,41.6596,57.968,41.6881,57.7567z" fill="#E8EFF9"/><path d="M51.9703,58.2058c-0.2613,0-0.5086,0.0536-0.7414,0.1372c0.0002,0.0195,0.0029,0.0383,0.0029,0.0578      c0,1.1923-0.4399,2.2815-1.1625,3.1215c0.3836,0.6562,1.0879,1.1033,1.901,1.1033c1.2185,0,2.2099-0.9914,2.2099-2.2099      S53.1888,58.2058,51.9703,58.2058z" fill="#E8EFF9"/></g></g><g><path d="M105.6703,30.9828c-0.4514,0-0.8688,0.1023-1.2435,0.2899c-0.1873-2.2062-2.0356-3.9433-4.2925-3.9433     c-1.9674,0-3.6368,1.32-4.1478,3.1169c-0.4855-0.2894-1.0646-0.4512-1.6693-0.4512c-1.8652,0-3.3727,1.5075-3.3727,3.364     c0,1.8652,1.5075,3.3727,3.3727,3.3727h11.3532c1.5841,0,2.8702-1.2859,2.8702-2.8786     C108.5405,32.2691,107.2544,30.9828,105.6703,30.9828z" fill="#DEE7F8"/><path d="M100.1318,27.906c-1.9399,0-3.5184,1.5785-3.5184,3.5184c0,1.9404,1.5785,3.5189,3.5184,3.5189     c1.9404,0,3.5189-1.5785,3.5189-3.5189C103.6506,29.4845,102.0721,27.906,100.1318,27.906z" fill="#E8EFF9"/><g><path d="M95.3844,30.7803c-0.3249-0.158-0.6848-0.2545-1.0698-0.2545c-1.3585,0-2.4637,1.1054-2.4637,2.4636      c0,1.3591,1.1052,2.4644,2.4637,2.4644c0.8477,0,1.5965-0.4304,2.04-1.0842c-0.6359-0.8139-1.0186-1.8348-1.0186-2.9452      C95.336,31.2053,95.3558,30.9915,95.3844,30.7803z" fill="#E8EFF9"/><path d="M105.6665,31.2294c-0.2613,0-0.5086,0.0536-0.7414,0.1372c0.0002,0.0195,0.0029,0.0383,0.0029,0.0578      c0,1.1923-0.4399,2.2815-1.1625,3.1215c0.3836,0.6562,1.0879,1.1033,1.901,1.1033c1.2185,0,2.2099-0.9914,2.2099-2.2099      S106.885,31.2294,105.6665,31.2294z" fill="#E8EFF9"/></g></g><g><path d="M33.3648,81.4534c-0.3817,0-0.7345,0.0865-1.0513,0.2451c-0.1584-1.8652-1.721-3.3338-3.6291-3.3338     c-1.6634,0-3.0747,1.116-3.5067,2.6352c-0.4104-0.2447-0.9001-0.3815-1.4113-0.3815c-1.577,0-2.8515,1.2745-2.8515,2.8441     c0,1.5769,1.2745,2.8514,2.8515,2.8514h9.5985c1.3393,0,2.4266-1.0871,2.4266-2.4337     C35.7914,82.5409,34.7041,81.4534,33.3648,81.4534z" fill="#DEE7F8"/><path d="M28.6823,78.8521c-1.6401,0-2.9746,1.3345-2.9746,2.9746c0,1.6405,1.3345,2.975,2.9746,2.975     c1.6405,0,2.975-1.3345,2.975-2.975C31.6573,80.1867,30.3228,78.8521,28.6823,78.8521z" fill="#E8EFF9"/><g><path d="M24.6686,81.2822c-0.2747-0.1336-0.579-0.2152-0.9044-0.2152c-1.1485,0-2.0829,0.9345-2.0829,2.0828      c0,1.149,0.9344,2.0835,2.0829,2.0835c0.7167,0,1.3498-0.3639,1.7247-0.9166c-0.5376-0.6881-0.8612-1.5512-0.8612-2.49      C24.6277,81.6415,24.6445,81.4608,24.6686,81.2822z" fill="#E8EFF9"/><path d="M33.3616,81.6619c-0.2209,0-0.43,0.0454-0.6269,0.116c0.0002,0.0165,0.0025,0.0323,0.0025,0.0489      c0,1.008-0.3719,1.9288-0.9828,2.6391c0.3243,0.5548,0.9197,0.9328,1.6072,0.9328c1.0302,0,1.8683-0.8382,1.8683-1.8684      S34.3918,81.6619,33.3616,81.6619z" fill="#E8EFF9"/></g></g><g><path d="M113.0881,60.3782c-0.5534,0-1.065,0.1254-1.5244,0.3554c-0.2297-2.7046-2.4955-4.8342-5.2624-4.8342     c-2.4119,0-4.4584,1.6182-5.0849,3.8211c-0.5952-0.3548-1.3052-0.5532-2.0465-0.5532c-2.2866,0-4.1348,1.8481-4.1348,4.124     c0,2.2866,1.8481,4.1347,4.1348,4.1347h13.9182c1.942,0,3.5187-1.5764,3.5187-3.529     C116.6068,61.9551,115.0301,60.3782,113.0881,60.3782z" fill="#DEE7F8"/><path d="M106.2983,56.6062c-2.3782,0-4.3133,1.9351-4.3133,4.3133c0,2.3788,1.9351,4.3139,4.3133,4.3139     c2.3788,0,4.3139-1.9351,4.3139-4.3139C110.6122,58.5414,108.677,56.6062,106.2983,56.6062z" fill="#E8EFF9"/><g><path d="M100.4783,60.1299c-0.3983-0.1937-0.8396-0.312-1.3115-0.312c-1.6654,0-3.0203,1.3551-3.0203,3.0202      c0,1.6661,1.3549,3.0212,3.0203,3.0212c1.0392,0,1.9572-0.5277,2.5009-1.3291c-0.7795-0.9977-1.2488-2.2494-1.2488-3.6106      C100.419,60.651,100.4433,60.3889,100.4783,60.1299z" fill="#E8EFF9"/><path d="M113.0835,60.6805c-0.3204,0-0.6235,0.0658-0.909,0.1682c0.0003,0.024,0.0036,0.0469,0.0036,0.0709      c0,1.4617-0.5393,2.7969-1.4251,3.8267c0.4703,0.8045,1.3336,1.3526,2.3305,1.3526c1.4938,0,2.7092-1.2154,2.7092-2.7092      S114.5773,60.6805,113.0835,60.6805z" fill="#E8EFF9"/></g></g></g></g></svg>