<?xml version="1.0" encoding="iso-8859-1"?>
<!-- Generator: Adobe Illustrator 23.0.0, SVG Export Plug-In . SVG Version: 6.00 Build 0)  -->
<svg version="1.1" id="&#x56FE;&#x5C42;_1" xmlns="http://www.w3.org/2000/svg" xmlns:xlink="http://www.w3.org/1999/xlink" x="0px"
	 y="0px" viewBox="0 0 500 500" style="enable-background:new 0 0 500 500;" xml:space="preserve">
<g>
	
		<ellipse transform="matrix(0.947 -0.3213 0.3213 0.947 -67.0973 93.5943)" style="opacity:0.3;fill:#58569F;" cx="250" cy="250.072" rx="230.712" ry="51.024"/>
	
		<ellipse transform="matrix(0.947 -0.3213 0.3213 0.947 -67.0973 93.5943)" style="opacity:0.4;fill:#786C9E;" cx="250" cy="250.072" rx="198.605" ry="43.923"/>
	
		<ellipse transform="matrix(0.947 -0.3213 0.3213 0.947 -67.0973 93.5943)" style="opacity:0.5;fill:#8F72A4;" cx="250" cy="250.072" rx="170.167" ry="37.634"/>
	
		<ellipse transform="matrix(0.947 -0.3213 0.3213 0.947 -67.0973 93.5943)" style="opacity:0.6;fill:#AF8DA1;" cx="250" cy="250.072" rx="138.06" ry="30.533"/>
	
		<ellipse transform="matrix(0.947 -0.3213 0.3213 0.947 -67.0973 93.5943)" style="fill:#A981AF;" cx="250" cy="250.072" rx="106.871" ry="23.635"/>
	<g style="opacity:0.6;">
		
			<radialGradient id="SVGID_1_" cx="944.108" cy="4304.6221" r="191.1614" gradientTransform="matrix(0.8971 -0.3044 0.0706 0.2082 -881.22 -358.5101)" gradientUnits="userSpaceOnUse">
			<stop  offset="0.6656" style="stop-color:#F198BF"/>
			<stop  offset="0.999" style="stop-color:#FFDC80"/>
		</radialGradient>
		<path style="fill:url(#SVGID_1_);" d="M255.851,295.541c-48.187,16.351-90.227,26.191-121.574,28.456
			c-17.888,1.293-31.946,0.066-40.654-3.546c-7.889-3.273-11.061-8.449-8.933-14.573c2.436-7.009,9.032-14.818,19.604-23.208
			c9.672-7.676,22.433-15.67,37.929-23.759c26.412-13.787,59.141-26.922,89.802-36.039c33.262-9.89,58.239-15.161,76.357-16.114
			c19.373-1.019,30.297,2.927,33.397,12.063c1.73,5.097-7.046,13.028-24.71,22.332c-19.619,10.334-47.852,21.061-71.927,27.33
			c-16.985,4.423-29.539,5.719-36.306,3.748c-5.009-1.459-5.066-4.189-5.066-4.304c0-0.59,1.967-1.7,4.382-2.475
			c2.418-0.776,4.378-0.928,4.382-0.341l0,0c0,0.025,0.085,2.483,4.546,3.745c5.781,1.635,15.935,0.583,30.18-3.126
			c21.436-5.582,46.62-15.158,64.159-24.396c15.457-8.141,23.135-15.083,21.62-19.547c-5.636-16.61-38.005-15.503-101.867,3.485
			c-28.361,8.432-58.749,20.641-83.377,33.498c-21.686,11.32-48.725,28.232-54.382,44.509c-2.016,5.8,1.013,10.711,8.528,13.828
			c8.29,3.439,21.636,4.61,38.595,3.384c29.483-2.13,69.132-11.422,114.662-26.872c56.986-19.337,107.535-41.264,142.337-61.744
			c33.668-19.812,50.183-36.695,46.503-47.539c-0.18-0.53,1.631-1.624,4.044-2.443c2.413-0.819,4.515-1.053,4.695-0.522
			c3.861,11.377-13.459,29.086-48.767,49.864C367.696,252.606,315.078,275.444,255.851,295.541z"/>
	</g>
	<g style="opacity:0.6;">
		
			<radialGradient id="SVGID_2_" cx="-5932.7158" cy="-5126.2529" r="191.1615" gradientTransform="matrix(-0.8971 0.3044 -0.0706 -0.2082 -5456.1621 989.4287)" gradientUnits="userSpaceOnUse">
			<stop  offset="0.6656" style="stop-color:#F198BF"/>
			<stop  offset="0.999" style="stop-color:#FFDC80"/>
		</radialGradient>
		<path style="fill:url(#SVGID_2_);" d="M284.11,272.243c-6.142,2.084-12.265,4.037-18.312,5.835
			c-33.262,9.89-58.239,15.161-76.357,16.114c-19.373,1.019-30.297-2.927-33.397-12.063c-1.73-5.097,7.046-13.028,24.71-22.332
			c19.619-10.334,47.852-21.061,71.927-27.33c16.985-4.423,29.539-5.719,36.306-3.748c5.009,1.459,5.066,4.189,5.066,4.304
			c-0.001,0.59-1.968,1.698-4.382,2.475c-2.417,0.776-4.378,0.928-4.382,0.341l0,0c0-0.025-0.085-2.483-4.547-3.745
			c-5.781-1.635-15.935-0.583-30.18,3.126c-21.435,5.582-46.62,15.158-64.159,24.396c-15.457,8.141-23.135,15.083-21.62,19.547
			c5.636,16.61,38.005,15.503,101.867-3.485c28.359-8.432,58.749-20.642,83.377-33.498c21.686-11.32,48.725-28.232,54.382-44.509
			c2.016-5.8-1.013-10.711-8.528-13.828c-8.29-3.439-21.636-4.61-38.595-3.384c-29.482,2.13-69.132,11.422-114.662,26.872
			c-56.986,19.337-107.535,41.264-142.337,61.744c-33.668,19.812-50.183,36.695-46.503,47.539c0.18,0.53-1.631,1.624-4.044,2.443
			c-2.413,0.819-4.515,1.053-4.695,0.522c-3.861-11.377,13.459-29.086,48.767-49.864c36.316-21.371,88.934-44.208,148.161-64.305
			c48.187-16.351,90.227-26.191,121.574-28.456c17.888-1.293,31.946-0.066,40.654,3.546c7.889,3.273,11.061,8.449,8.933,14.573
			c-2.436,7.009-9.032,14.817-19.604,23.208c-9.672,7.676-22.433,15.67-37.929,23.759
			C334.397,253.108,309.117,263.757,284.11,272.243z"/>
	</g>
	
		<radialGradient id="SVGID_3_" cx="731.644" cy="4274.9497" r="67.6274" gradientTransform="matrix(0.947 -0.3213 0.0706 0.2082 -744.8286 -404.791)" gradientUnits="userSpaceOnUse">
		<stop  offset="0.6656" style="stop-color:#FFFFF4"/>
		<stop  offset="0.999" style="stop-color:#FFFFF4;stop-opacity:0"/>
	</radialGradient>
	<path style="fill:url(#SVGID_3_);" d="M313.849,228.406c2.646,7.799-23.795,23.821-59.058,35.786
		c-35.263,11.966-65.994,15.344-68.641,7.545c-2.646-7.799,23.795-23.821,59.058-35.786
		C280.471,223.986,311.203,220.608,313.849,228.406z"/>
</g>
</svg>
