<?xml version="1.0" ?><!DOCTYPE svg  PUBLIC '-//W3C//DTD SVG 1.1//EN'  'http://www.w3.org/Graphics/SVG/1.1/DTD/svg11.dtd'><svg enable-background="new 0 0 126 126" id="Layer_1" version="1.1" viewBox="0 0 126 126" xml:space="preserve" xmlns="http://www.w3.org/2000/svg" xmlns:xlink="http://www.w3.org/1999/xlink"><g><g><path d="M106.7532,81.5295c-1.413-0.2057-14.8281,4.1895-16.25,10.1994    c-1.422,6.0183-12.1541,12.2824-16.724,10.7352s-10.5618,0.1074-10.5618,0.1074l-3.774,1.8244l-0.8586,0.4113h-0.009L1,71.5642    l64.0335-37.2199l55.9482,32.3043c1.565,0.903,2.8707,2.2445,3.5504,3.917C128.3061,79.7947,108.0499,81.7086,106.7532,81.5295z" fill="#F3F6FD"/><path d="M64.9838,82.3756c0.3056,0.7556,0.9354,1.304,1.7435,1.5583l2.1878,1.4111l-0.2235,0.6287l-1.7915,0.4951    c-0.5753,0.1538-0.9747,0.5146-1.0297,0.9094c-0.0462,0.2808-0.1035,0.6287-0.1829,0.9897c0,0-0.1634,0.689-0.2566,1.4983    l-10.1154,0.0935c-0.5249-0.2742-1.0553-0.5149-1.589-0.7356c-3.7268-1.5383-7.6727-1.8059-11.1452-0.5151l-2.4553,0.8828    c-0.4897,0.1807-0.9639,0.3882-1.4335,0.6289c1.2286,2.1191,2.6733,3.9893,4.2783,5.5767l8.7857,5.0725    c3.0255,0.7239,6.1949,0.6172,8.8941-0.3694l2.3187-0.843c0.5497-0.1804,1.0983-0.4146,1.6334-0.6887    c-0.9581-1.6521-2.0826-3.1436-3.3257-4.4612l3.0757-2.0398c0.0025,0.2275,0.1563,0.5083,0.3732,0.6489    c0.2269,0.1404,0.5815,0.2942,1.1473,0.3811c0.9658,0.1472,2.08,0,3.3331-0.1404c0.7632-0.0803,1.8584-0.2944,2.7338-0.3882    c1.5764-0.1602,3.8759-1.1902,3.1732-2.9961c-0.6069-1.5383,0.1604-2.6152-1.1893-3.1033    c-0.0012-0.0537-0.0191-0.1272-0.0226-0.2275c0,0,0.7868,0.0803,1.7543-0.0869c0.201-0.0066,0.4155-0.0334,0.641-0.0669    c1.6962-0.2808,3.0269-1.2573,3.2641-2.3943c0.2403-1.2173,0.1851-2.4011,0.3696-3.8257c-0.0534-0.04-0.1079-0.0735-0.1735-0.1003    c0.2186-1.5715,0.3651-3.1902,0.3832-4.3943c0.0026-0.5015-0.3679-0.8025-0.9837-0.9495c0.0855-0.7625,0.1956-1.4314,0.2858-2.04    c0.0175-0.1064,0.0444-0.2673,0.0779-0.4658l-14.8644,8.6382C64.7497,81.5407,64.8337,82.0162,64.9838,82.3756z" fill="#E1E9F4"/><path d="M101.7027,61.0481l-0.0084,2.0827c0,0.1838-0.117,0.3634-0.3509,0.4971l-38.533,22.3934    c-0.4762,0.2757-1.2575,0.2715-1.7379-0.0042L37.9782,72.6815c-0.2423-0.1379-0.3635-0.3217-0.3635-0.5055l0.0084-2.0827    c0,0.1838,0.1211,0.3676,0.3635,0.5055l23.0902,13.3314c0.4846,0.2799,1.2658,0.284,1.7421,0.0084l38.5288-22.3934    C101.5857,61.4074,101.7027,61.2277,101.7027,61.0481z" fill="#E1E9F4"/><polygon fill="#FDFEFF" points="114.3776,62.8353 77.9325,83.7343 69.2113,78.699 105.6567,57.8 105.1331,57.4978     68.6877,78.3968 41.4864,62.6922 77.933,41.7923 77.4095,41.4901 40.9629,62.39 32.2464,57.3573 68.6933,36.4574 68.1698,36.1552     3.8886,73.2318 4.4122,73.5345 31.834,57.597 40.5505,62.6293 13.1285,78.5667 13.652,78.8693 41.0741,62.9315 49.8707,68.0105     22.4485,83.9479 22.8211,84.1632 50.2434,68.2257 59.1155,73.348 31.693,89.2858 32.0609,89.4981 59.4834,73.5602     68.2753,78.6366 40.8527,94.5744 41.3762,94.8766 68.7989,78.9387 77.5201,83.9741 50.0972,99.9119 50.6208,100.2141     114.9012,63.1375   "/></g><g><g><path d="M37.613,70.265c0,0.1809,0.124,0.3669,0.367,0.5013l23.0924,13.3396     c0.4807,0.2739,1.2611,0.2791,1.7366,0l38.5355-22.3895c0.2326-0.1344,0.3514-0.3152,0.3514-0.4961l0.0052-2.0829     c0-0.1861-0.1189-0.3721-0.367-0.5117L78.2417,45.2913c-0.4807-0.279-1.2559-0.279-1.7314,0L37.98,67.6808     c-0.2378,0.1396-0.3566,0.3205-0.3566,0.5013L37.613,70.265z" fill="#9EB5DF"/><path d="M101.7027,59.1353l-0.0084,2.0827c0,0.1838-0.117,0.3634-0.3509,0.4971l-38.533,22.3934     c-0.4762,0.2757-1.2575,0.2715-1.7379-0.0042L37.9782,70.7687c-0.2423-0.1379-0.3635-0.3217-0.3635-0.5055l0.0084-2.0827     c0,0.1838,0.1211,0.3676,0.3635,0.5055l23.0902,13.3314c0.4846,0.2799,1.2658,0.284,1.7421,0.0084l38.5288-22.3934     C101.5857,59.4946,101.7027,59.3149,101.7027,59.1353z" fill="#9EB5DF"/><path d="M101.3356,58.6243c0.4828,0.2787,0.4907,0.7315,0.0137,1.0087L62.8198,82.0239     c-0.477,0.2772-1.2587,0.2741-1.7415-0.0046L37.9853,68.6865c-0.4801-0.2772-0.4827-0.7269-0.0056-1.0041l38.5295-22.3909     c0.477-0.2772,1.2533-0.2772,1.7334,0L101.3356,58.6243z" fill="#DEE7F8"/><g><g><path d="M90.6594,53.8316c0.1307,0.0755,0.1288,0.1971-0.0011,0.2726c-0.1272,0.0739-0.3372,0.0755-0.4679,0       l-4.3379-2.5043c-0.1307-0.0755-0.1314-0.1987-0.0042-0.2726c0.1299-0.0755,0.3425-0.0755,0.4732,0L90.6594,53.8316z" fill="#9EB5DF"/></g><g><path d="M85.3372,50.7591c0.1307,0.0755,0.1288,0.1971,0.0015,0.271c-0.1298,0.0754-0.3399,0.077-0.4706,0.0015       c-0.1307-0.0755-0.1314-0.1987-0.0015-0.2741C84.9939,50.6836,85.2065,50.6836,85.3372,50.7591z" fill="#9EB5DF"/></g><g><path d="M91.2523,54.8196c-0.1803-0.1041-0.1813-0.2739-0.0058-0.3759c0.179-0.104,0.4724-0.1041,0.6527,0       c0.1766,0.1019,0.1775,0.2719-0.0016,0.3759C91.7222,54.9216,91.4289,54.9216,91.2523,54.8196z" fill="#9EB5DF"/></g><g><path d="M53.1581,75.1056c0.3441,0.1987,0.3485,0.5236,0.0041,0.7238c-0.3445,0.2002-0.9055,0.1987-1.2496,0       l-3.2008-1.848c-0.3467-0.2002-0.3486-0.5236-0.0041-0.7238c0.3445-0.2002,0.9028-0.2002,1.2496,0L53.1581,75.1056z" fill="#9EB5DF"/></g><g><path d="M100.0045,59.4966L64.0481,80.3922L40.7897,66.9639L76.746,46.0683l7.4522,4.3025       c-0.5883,0.3419-0.5852,0.8963,0.007,1.2381l6.2148,3.5881c0.5895,0.3403,1.5439,0.3388,2.1322-0.0031L100.0045,59.4966z" fill="#4C4A8B"/></g></g></g><g><g><g><g><g><g><path d="M43.4795,38.7637l2.3613,1.3538c-0.4591-0.2668-0.904-0.5794-1.3326-0.939l-2.3613-1.3538          C42.5755,38.1843,43.0204,38.4969,43.4795,38.7637z" fill="#3887E5"/></g><g><path d="M42.147,37.8248l2.3613,1.3537c3.4343-6.8914,7.9509-11.9505,12.4732-14.5611          c3.9598-2.2867,7.9282-2.6958,11.1807-0.8039l-2.3613-1.3538c-3.2525-1.8918-7.514-1.6532-11.4739,0.6336          C49.8048,25.7039,45.5814,30.9335,42.147,37.8248z" fill="#A6C2FF"/></g></g><g><g enable-background="new    "><g><path d="M56.9817,24.6157c-4.5219,2.6107-9.0368,7.6712-12.4734,14.5628           c3.4643,2.9064,7.9932,2.7449,12.515,0.1342s9.0368-7.6707,12.4734-14.5613           C66.0323,21.8441,61.5035,22.005,56.9817,24.6157z" fill="#6B9EF9"/></g></g></g><g><path d="M46.4297,38.5269c0.0915-0.0528,0.1813-0.0655,0.2537-0.0352         c0.0497,0.0207,0.0885,0.0611,0.1122,0.1157l1.7787-1.0268l1.5397-0.0181l2.1808-1.2591l0.0007,0.2793l-2.2012,1.2709         l-1.5397,0.0181L46.808,38.88c-0.0456,0.1979-0.1841,0.3963-0.3407,0.4868c-0.0587,0.0338-0.116,0.051-0.1684,0.051         c-0.0384,0-0.0743-0.0092-0.1062-0.0275c-0.0756-0.0435-0.1173-0.132-0.1176-0.2492         C46.0745,38.9157,46.2334,38.6402,46.4297,38.5269z" fill="#FFFFFF"/><path d="M47.8865,38.9951c0.0914-0.0528,0.1816-0.0653,0.2535-0.0352         c0.0498,0.0208,0.0886,0.0612,0.1123,0.1158l0.3361-0.194l1.5408,0.3398l2.1703-1.2529l0.0007,0.2802l-2.1997,1.27         l-0.0119,0.0069l-1.5408-0.3407l-0.2828,0.1633c-0.0444,0.197-0.1827,0.3954-0.3408,0.4868         c-0.0585,0.0338-0.1158,0.0509-0.1682,0.0509c-0.0383,0-0.0741-0.0092-0.106-0.0275         c-0.0753-0.0433-0.1169-0.1314-0.1172-0.2477C47.5321,39.3842,47.6908,39.108,47.8865,38.9951z" fill="#FFFFFF"/><path d="M48.6126,35.2703L48.254,35.481c-0.0442,0.1964-0.1825,0.3944-0.3408,0.4858         c-0.0588,0.034-0.1161,0.051-0.1687,0.051c-0.0383,0-0.0741-0.0091-0.1058-0.0274c-0.075-0.0432-0.1166-0.1313-0.1169-0.2479         c-0.0007-0.2249,0.158-0.4997,0.3537-0.6127c0.0915-0.0529,0.1817-0.0654,0.2541-0.0354         c0.0492,0.0204,0.0878,0.0598,0.1117,0.1133l0.2649-0.1529l1.5293-2.1107l2.246-1.3003l0.0007,0.2793l-2.1403,1.2358         L48.6126,35.2703z" fill="#FFFFFF"/><path d="M48.6077,36.5839l-1.803,1.0431c-0.0444,0.1966-0.1828,0.3946-0.3409,0.4858         c-0.0589,0.0341-0.1164,0.0512-0.1691,0.0512c-0.0384,0-0.0742-0.0091-0.1061-0.0274         c-0.075-0.0433-0.1166-0.1311-0.1171-0.2476c-0.0006-0.2249,0.1584-0.5,0.3545-0.6131         c0.0915-0.0529,0.182-0.0653,0.2541-0.0354c0.0492,0.0204,0.0879,0.0599,0.1117,0.1133l1.726-0.9966l1.531-1.7545         l2.2373-1.294l0.0011,0.2802l-2.1485,1.2404L48.6077,36.5839z" fill="#FFFFFF"/><path d="M65.3924,29.1834l0.3609-0.2119c0.0423-0.197,0.1796-0.3956,0.3384-0.4873v-0.0001         c0.1017-0.0584,0.1992-0.0669,0.2748-0.0234c0.0755,0.0435,0.1172,0.132,0.1175,0.2491         c0.0007,0.2253-0.1583,0.5009-0.3545,0.6142c-0.0903,0.0522-0.1796,0.0647-0.2508,0.0349         c-0.0497-0.0206-0.0885-0.0607-0.1125-0.1151l-0.2664,0.1538l-1.5295,2.1097l-2.2443,1.2994l-0.0007-0.2803l2.1378-1.2343         L65.3924,29.1834z" fill="#FFFFFF"/><path d="M63.9115,26.5968l1.5399-0.0162l1.7479-1.0092c0.0444-0.1965,0.1817-0.3939,0.3384-0.4843         c0.1018-0.0589,0.1999-0.0675,0.2755-0.024c0.0749,0.0431,0.1164,0.1308,0.1166,0.2468         c0.0007,0.2254-0.1583,0.5009-0.3545,0.6141c-0.0906,0.0524-0.1796,0.0647-0.2513,0.035         c-0.0494-0.0205-0.0881-0.0603-0.1119-0.1142l-1.7723,1.0233l-0.008,0.0047l-1.5399,0.0162l-2.1792,1.258l-0.0007-0.2802         l2.1915-1.2652L63.9115,26.5968z" fill="#FFFFFF"/><path d="M65.3981,27.8695l1.8047-1.0441c0.0423-0.197,0.1798-0.3956,0.3384-0.4873         c0.1017-0.0587,0.199-0.0671,0.2752-0.0238c0.0752,0.0433,0.1168,0.1312,0.1171,0.2476         c0.0006,0.2265-0.1584,0.5028-0.3545,0.616c-0.0904,0.0522-0.1795,0.0644-0.2512,0.0343         c-0.0495-0.0206-0.0884-0.0605-0.1121-0.1145l-1.7277,0.9975l-1.531,1.7526l-2.2357,1.293l-0.0007-0.2792l2.1466-1.2394         L65.3981,27.8695z" fill="#FFFFFF"/><path d="M63.9173,24.9258l1.5407,0.3417l0.2845-0.1642c0.0443-0.1965,0.1816-0.3938,0.3383-0.4844         c0.1021-0.0589,0.2-0.0673,0.2755-0.0237c0.075,0.0431,0.1165,0.1307,0.1168,0.2465         c0.0007,0.2254-0.1583,0.5009-0.3545,0.6142c-0.0904,0.0523-0.1796,0.0648-0.2513,0.0352         c-0.0494-0.0205-0.0881-0.0604-0.1119-0.1144l-0.3387,0.1955l-1.5407-0.3426l-2.1679,1.2515l-0.0007-0.2793l2.1982-1.2691         L63.9173,24.9258z" fill="#FFFFFF"/></g><g><g><path d="M56.9832,25.4321c-3.1195,1.801-5.6394,6.1679-5.6293,9.7524          c0.0102,3.5845,2.5466,5.032,5.6661,3.231c3.1195-1.801,5.6413-6.1689,5.6311-9.7534S60.1027,23.6311,56.9832,25.4321z" fill="#3A3A77"/></g><g opacity="0.5"><path d="M54.6108,38.1663l14.5673,0.1902l1.0479-1.599l-9.1171-10.1661          C60.2302,26.0837,53.7376,37.6642,54.6108,38.1663z" fill="#A6C2FF"/></g><g><path d="M56.9867,26.3469c-2.6806,1.5476-4.8462,5.2987-4.8375,8.3789          c0.0087,3.0802,2.1886,4.3224,4.8691,2.7748c2.6806-1.5476,4.8462-5.2987,4.8375-8.3789S59.6673,24.7992,56.9867,26.3469z" fill="#6B9EF9"/></g><g><g><path d="M54.0655,30.8555c-0.0423,0.0244-0.0848,0.0546-0.1269,0.0903           c-0.1472,0.1225-0.2719,0.297-0.352,0.4911c-0.0869,0.2059-0.1086,0.4097-0.0619,0.562           c-0.5052,1.504-0.5012,2.9426,0.0092,3.8622c-0.044,0.2028-0.0195,0.3779,0.0666,0.4859           c0.105,0.1286,0.2852,0.1389,0.4804,0.0262c0.1062-0.0613,0.2089-0.1541,0.2977-0.2704           c0.2615-0.3402,0.3426-0.7911,0.1773-0.9993c-0.074-0.0933-0.1873-0.1244-0.3193-0.0936           c-0.388-0.7222-0.3894-1.8056-0.0067-2.9766c0.13-0.1204,0.2428-0.2821,0.3161-0.4585           c0.1635-0.4019,0.0819-0.7569-0.1824-0.7916C54.2721,30.7702,54.1695,30.7955,54.0655,30.8555z" fill="#A6C2FF"/></g><g enable-background="new    "><g><path d="M58.7378,31.2581l-0.0508,0.2382c-0.1608,0.7631-0.6234,1.5644-1.2069,2.0905l-0.1814,0.1639            l0.1156,0.8459l0.2344-0.2043c0.895-0.7848,1.5932-1.9942,1.8232-3.1599l0.0592-0.3062L58.7378,31.2581z" fill="#A6C2FF"/></g><g><path d="M55.1748,35.701c-0.0429,0.0248-0.0864,0.0555-0.1296,0.0919            c-0.1455,0.1234-0.2702,0.2979-0.3486,0.489c-0.0801,0.1941-0.1053,0.3841-0.0705,0.5335            c0.033,0.1485,0.1242,0.2398,0.2512,0.2591c0.0917,0.0116,0.1956-0.0146,0.3004-0.0751            c0.052-0.03,0.1043-0.0686,0.1554-0.1151c0.5198-0.0103,1.1025-0.195,1.6814-0.5292            c0.5806-0.3352,1.1608-0.822,1.6806-1.4119c0.0504-0.0122,0.1021-0.0337,0.1537-0.0634            c0.1045-0.0603,0.2084-0.1545,0.3-0.2734c0.1282-0.1646,0.2168-0.3597,0.2506-0.5488            c0.0321-0.188,0.0076-0.3474-0.0733-0.4485c-0.1081-0.1341-0.2927-0.1356-0.4813-0.0267            c-0.1028,0.0594-0.2068,0.1516-0.3003,0.2729c-0.1162,0.1519-0.2015,0.3312-0.2387,0.5045            c-0.4117,0.4582-0.8527,0.8233-1.2937,1.0779c-0.4419,0.2551-0.8838,0.3994-1.2959,0.4153            c-0.0398-0.1307-0.1258-0.2092-0.2442-0.2257C55.3817,35.6151,55.2796,35.6405,55.1748,35.701z" fill="#A6C2FF"/></g><g><path d="M59.9261,27.4712c-0.1062,0.0613-0.2108,0.1556-0.3028,0.2754            c-0.1265,0.1637-0.2134,0.3578-0.2472,0.5468c-0.0338,0.189-0.0076,0.3493,0.0733,0.4505            c0.0723,0.0923,0.1856,0.1254,0.3193,0.0916c0.3863,0.7271,0.3894,1.8075,0.0101,2.9727            c-0.1335,0.1204-0.2462,0.2841-0.3195,0.4644c-0.1653,0.399-0.0854,0.755,0.1789,0.7936            c0.091,0.0126,0.1955-0.0143,0.3-0.0747c0.197-0.1137,0.3765-0.3317,0.4804-0.5809            c0.0852-0.2089,0.1069-0.4106,0.0619-0.562c0.5052-1.504,0.5012-2.9426-0.0126-3.8564            c0.0457-0.2038,0.0229-0.3818-0.0632-0.4918c-0.0809-0.1011-0.2062-0.1313-0.3536-0.0856            C60.0097,27.4282,59.9678,27.4472,59.9261,27.4712z" fill="#A6C2FF"/></g><g><path d="M56.9982,30.6421c-0.6149,0.355-1.1133,1.2184-1.1113,1.9269            c0.002,0.7085,0.5037,0.9944,1.1186,0.6394c0.6166-0.356,1.115-1.2194,1.113-1.9278            C58.1165,30.572,57.6148,30.2861,56.9982,30.6421z" fill="#A6C2FF"/></g><g><path d="M55.2678,33.2614l-0.7926,0.5838l0.0607,0.237c0.2358,0.8948,0.9403,1.2963,1.8368,1.0468            l0.2348-0.0666l0.1105-0.9765l-0.1817,0.0458c-0.5846,0.1483-1.0502-0.1171-1.2165-0.6913L55.2678,33.2614z" fill="#A6C2FF"/></g><g><path d="M57.3978,28.787l-0.1105,0.9765l0.1817-0.0458c0.5846-0.1502,1.0485,0.1161,1.2148,0.6922            l0.052,0.179l0.7926-0.5838l-0.0607-0.237c-0.2358-0.8967-0.9386-1.2972-1.8351-1.0477L57.3978,28.787z" fill="#A6C2FF"/></g><g><path d="M56.5911,29.2528l-0.2344,0.2043c-0.895,0.7848-1.5949,1.9971-1.8249,3.1608l-0.0592,0.3062            l0.7933-0.3319l0.0508-0.2383c0.1625-0.766,0.6251-1.5673,1.2069-2.0904l0.1831-0.1648L56.5911,29.2528z" fill="#A6C2FF"/></g><g><path d="M56.9893,27.4957c-0.5755,0.3322-1.1505,0.8106-1.6755,1.4065            c-0.0531,0.0125-0.1074,0.0349-0.1613,0.066c-0.1045,0.0604-0.2079,0.1538-0.2992,0.2728            c-0.1265,0.1637-0.2151,0.3587-0.2472,0.5448c-0.0338,0.191-0.0076,0.3493,0.0733,0.4505            c0.0792,0.1021,0.2045,0.1323,0.3519,0.0866c0.0428-0.0149,0.0857-0.0337,0.1285-0.0584            c0.1045-0.0603,0.2071-0.1531,0.2977-0.2704c0.1162-0.1519,0.1998-0.3283,0.2387-0.5025            c0.4108-0.4587,0.8519-0.8242,1.2935-1.0792c0.4426-0.2555,0.8857-0.4,1.2996-0.4159            c0.0398,0.1268,0.1241,0.2043,0.2391,0.2227c0.094,0.0133,0.1983-0.0148,0.3013-0.0743            c0.1884-0.1088,0.3723-0.3226,0.4791-0.5793c0.0801-0.1961,0.1036-0.3831,0.0705-0.5335            c-0.0347-0.1495-0.1242-0.2418-0.2529-0.2581c-0.0906-0.014-0.1937,0.0118-0.2981,0.0721            c-0.0539,0.0311-0.1081,0.0714-0.1611,0.1201C58.1406,26.9773,57.5648,27.1634,56.9893,27.4957z" fill="#A6C2FF"/></g></g></g><g><g><path d="M58.8961,31.4452c-0.1828,0.8605-0.7001,1.7545-1.3572,2.3487l0.0543,0.3885           c0.818-0.7167,1.4581-1.8275,1.6678-2.8908L58.8961,31.4452z" fill="#3887E5"/></g><g><path d="M59.9251,27.7221c-0.0634,0.0366-0.1274,0.0935-0.1848,0.1683           c-0.1624,0.2101-0.2113,0.4867-0.108,0.6143c0.062,0.0805,0.1701,0.0851,0.2814,0.0228           c0.4775,0.7987,0.4828,2.0789,0.0114,3.4234c-0.113,0.0672-0.219,0.1935-0.2821,0.3481           c-0.1022,0.2463-0.0519,0.4656,0.1112,0.4897c0.0572,0.0077,0.1208-0.0095,0.1837-0.0459           c0.1166-0.0673,0.2308-0.2,0.2972-0.3599c0.0681-0.1675,0.0677-0.321,0.0091-0.4094           c0.5344-1.509,0.5303-2.9476-0.0126-3.8347c0.0596-0.1566,0.0592-0.3121-0.0097-0.4004           C60.1552,27.656,60.0412,27.6551,59.9251,27.7221z" fill="#3887E5"/></g><g><path d="M55.1111,33.6305l-0.3646,0.2677c0.215,0.8181,0.8611,1.1863,1.6805,0.9576l0.0502-0.4488           C55.8188,34.5721,55.2999,34.2764,55.1111,33.6305z" fill="#3887E5"/></g><g><path d="M56.9989,30.8905c-0.4967,0.2868-0.8978,0.9836-0.8962,1.5543           c0.0016,0.5727,0.4054,0.8028,0.9021,0.516s0.8996-0.9826,0.8979-1.5553C57.9011,30.8349,57.4956,30.6038,56.9989,30.8905z           " fill="#3887E5"/></g><g><path d="M56.4122,29.6681c-0.818,0.7167-1.4599,1.8285-1.6696,2.8918l0.365-0.1516           c0.1845-0.8635,0.7001-1.7585,1.3572-2.3507L56.4122,29.6681z" fill="#3887E5"/></g><g><path d="M56.9908,27.7422c-0.5733,0.331-1.1462,0.8165-1.666,1.4261           c-0.0519-0.0032-0.1101,0.0132-0.1689,0.0471c-0.0636,0.0367-0.1279,0.0941-0.1856,0.1694           c-0.1624,0.2101-0.2113,0.4867-0.1081,0.6143c0.066,0.0835,0.1802,0.0843,0.2966,0.0171           c0.0629-0.0363,0.1264-0.0924,0.1833-0.166c0.1008-0.1312,0.157-0.2858,0.1601-0.4137           c0.4651-0.5425,0.9764-0.9747,1.4882-1.2702c0.5119-0.2955,1.0244-0.4544,1.4919-0.4503           c0.0038,0.124,0.0624,0.2124,0.1619,0.2278c0.0572,0.0078,0.1208-0.0095,0.1837-0.0459           c0.1166-0.0673,0.2308-0.2,0.2972-0.3599c0.1005-0.2453,0.0501-0.4646-0.1129-0.4868           c-0.058-0.0085-0.1224,0.0085-0.1857,0.045c-0.0586,0.0338-0.1162,0.0843-0.1671,0.1469           C58.1379,27.2347,57.5642,27.4112,56.9908,27.7422z" fill="#3887E5"/></g><g><path d="M57.5785,28.9947l-0.0519,0.4498c0.6583-0.1672,1.1789,0.1295,1.366,0.7785l0.3646-0.2697           C59.0422,29.1352,58.3979,28.7661,57.5785,28.9947z" fill="#3887E5"/></g><g><path d="M54.0648,31.1056c-0.1156,0.0667-0.2284,0.1986-0.2946,0.3579           c-0.0699,0.1685-0.0677,0.3229-0.0091,0.4113c-0.5344,1.5091-0.5303,2.9476,0.0092,3.8367           c-0.0562,0.1547-0.0574,0.3091,0.0131,0.3966c0.0671,0.0829,0.181,0.0839,0.297,0.0168           c0.0627-0.0362,0.126-0.0922,0.1829-0.1658c0.1624-0.212,0.2113-0.4887,0.1098-0.6173           c-0.0637-0.0795-0.1701-0.0832-0.2814-0.0228c-0.4792-0.7957-0.4811-2.0779-0.008-3.4254           c0.1113-0.0662,0.2156-0.1935,0.2786-0.3462c0.1005-0.2453,0.0501-0.4646-0.1129-0.4868           C54.1919,31.0521,54.1279,31.0691,54.0648,31.1056z" fill="#3887E5"/></g><g><path d="M55.1744,35.951c-0.116,0.067-0.2291,0.199-0.2942,0.3576           c-0.1022,0.2463-0.0519,0.4656,0.1112,0.4878c0.0579,0.0081,0.1224-0.0089,0.1862-0.0457           c0.0573-0.0331,0.114-0.0821,0.1649-0.1432c0.5224,0.0079,1.0974-0.1694,1.672-0.5012           c0.5746-0.3317,1.1488-0.8179,1.6694-1.428c0.0503,0.0027,0.1067-0.0136,0.1637-0.0466           c0.0636-0.0367,0.1279-0.0941,0.1856-0.1689c0.1624-0.2101,0.2113-0.4867,0.1098-0.6153           c-0.0668-0.0825-0.1808-0.0834-0.2968-0.0164c-0.0634,0.0366-0.1274,0.0934-0.1848,0.1683           c-0.0991,0.1282-0.1587,0.2868-0.1601,0.4157c-0.4655,0.5415-0.9768,0.9732-1.4881,1.2685           c-0.5124,0.2958-1.0249,0.4548-1.492,0.4502c-0.0038-0.124-0.0607-0.2153-0.1619-0.2278           C55.3018,35.8973,55.2377,35.9144,55.1744,35.951z" fill="#3887E5"/></g></g></g></g></g></g></g><g><path d="M61.9457,56.7628c-5.2583,3.0359-5.2888,7.9577-0.0647,10.9936     c5.2241,3.0359,13.724,3.036,18.9823,0.0001s5.286-7.9593,0.0619-10.9953C75.7011,53.7253,67.204,53.7269,61.9457,56.7628z" fill="#83A1CC"/></g><g><path d="M62.9308,57.3353c-4.7106,2.7197-4.738,7.1289-0.058,9.8486c4.68,2.7197,12.2946,2.7198,17.0053,0.0001     c4.7106-2.7197,4.7355-7.1303,0.0554-9.8501C75.2535,54.6141,67.6414,54.6156,62.9308,57.3353z" fill="#2A2A5E"/></g><g><g><path d="M71.4038,56.6357c1.6404,0.0849,3.541,0.0232,6.0751,0.249c0,0-1.2423-5.4068-1.5185-7.5436      c1.8568,0.3117,3.7586,0.4598,5.6101,0.3611c0.0404,3.1538-0.0875,7.0958-0.356,9.7276c-0.319,3.1183-6.5976,0.9987-9.8107-0.3      V56.6357z" fill="#ECB4BF"/><path d="M81.744,52.7032c-1.1236,1.1312-4.7479,0.3641-5.5408-0.9872c-0.4385-2.0847-0.865-3.4659-0.9427-4.4793      c-0.2099-2.5697,1.3809-4.4676,3.8825-3.8277c1.648,0.4181,2.8196,1.8738,2.8624,3.5738      C82.0529,48.8108,81.8014,50.5735,81.744,52.7032z" fill="#3887E5"/></g><g><path d="M69.8249,34.6083c1.1988-0.3547,6.5317,4.256,6.5317,4.256l0.5055,3.8504      c0,0-0.5055,1.8116,0.3731,3.4712c0.8786,1.6597-5.5164,0.163-5.5164,0.163l-0.2709-2.1683l-1.714-0.7435      c-0.5415-0.2349-0.8869-0.7696-0.8798-1.3599c0.005-0.4184,0.0028-0.937-0.0197-1.4819      C68.8343,40.5954,68.5526,34.9849,69.8249,34.6083z" fill="#ECB4BF"/></g><g><g><path d="M79.9308,66.4364c-3.7836-1.5583-10.0834,0.6191-14.8972,1.7358       c0.3776,0.6221,0.5036,3.4285,0.6566,4.6257c-2.4785-0.4346-8.0427,3.2974-9.4767,4.2939       c-0.2598,0.1807-0.5628,0.321-0.8983,0.4146c-0.0522,0.0134-0.1044,0.0269-0.1244,0.0269       c-0.229,0.0244-0.7621,0.2437-1.1583,0.418l2.2499,1.2991c0.0735-0.1082,0.1485-0.2383,0.1904-0.3928l0.0111-0.0068       c0.0784-0.2942,0.3903-0.5483,0.7956-0.7021c1.7078-0.6555,3.7848-1.1838,6.5977-2.2339c0,0,0.3038,1.739,0.6239,3.2571       c-0.0521,0.0737-0.0953,0.1538-0.1174,0.2275c0.1227,0.6018,0.2,1.1086,0.2722,1.5576l14.8644-8.6382       c0.2421-1.4346,0.8483-4.9294,1.061-5.5813C80.3777,66.6368,80.1643,66.5368,79.9308,66.4364z" fill="#E1E9F4" opacity="0.5"/></g><g><path d="M65.0336,68.1722c1.5171-2.9673,2.5114-12.5596,2.0603-14.477       c-0.081-0.3441-0.0531-0.9567,0.0342-1.6818c0.1497-1.2429,0.3156-2.0991,0.4603-2.6779       c0.1598-0.6393,0.5104-1.2115,1.0085-1.6429l2.9685-2.5721c1.7733-0.0103,5.0006-0.1798,5.2081-1.9472       c0,0,5.883-0.9072,4.4356,7.1977c-1.1818,6.657-1.1565,10.5423-1.1783,13.5243c-0.006,1.3077,0.4234,1.7307,0.5504,2.8422       c-0.2228,0.1528-0.4541,0.3027-0.7032,0.4465C75.8368,69.5171,69.6629,69.8424,65.0336,68.1722z" fill="#6B9EF9"/></g><path d="M68.1671,34.5913c0.0055-0.3602,0.2183-0.8568,0.4912-1.0915c0.2456-0.2128,0.6276-0.4474,1.2061-0.5729      c0.9988-0.2238,2.0835,0.0005,3.3128,0.2073c0.7525,0.1266,1.8119,0.4421,2.6742,0.5785      c1.5445,0.2456,3.6785,1.7847,2.6742,4.4807s-0.0218,4.4479-2.6306,4.9501c-1.2498,0.2401-3.5638,0.2128-3.733,0.1419      c0,0,1.4735-3.9296,0.5403-4.0223c-0.906-0.0927-1.2171,0.1856-1.3699,1.1735c0,0.0055-0.0164,0.0873-0.0164,0.0873      c-0.2401-0.0382-0.513-0.131-0.8186-0.2565c0.131-1.2607,0.1419-2.6906,0.1419-2.6906S68.1507,35.9285,68.1671,34.5913z" fill="#A0533F"/><path d="M53.8262,54.311c0.1936,0.0938,1.2558,0.8625,1.2969,0.8743c0.0469,0.006,0.1408-0.0409-0.0117-0.2229      s-2.048-1.52-1.8251-1.7606c0.2289-0.2288,0.3169-0.1584,0.5164,0.0293c0.1995,0.1997,1.514,1.2676,1.514,1.2676      s0.0998,0.0295,0-0.1526c-0.1056-0.1702-1.5023-1.3085-1.8133-1.8837c-0.0528-0.0938-0.0939-0.4577,0.2817-0.3051      c0.3873,0.1526,1.9835,1.7723,1.9835,1.7723s0.1584,0,0.0352-0.1761c-0.1233-0.1702-1.3967-1.8075-1.4025-1.8602      c0-0.0469,0.0821-0.3697,0.3697-0.1293c0.2758,0.2408,1.0621,1.0213,1.6959,1.8193c0.6337,0.798,0.5751,0.3813,0.5751,0.3813      s-0.1819-0.5104-0.2347-0.6219c-0.1643-0.3286-0.0411-0.9389,0.4518-0.9976c0.0293-0.0058,0.0587,0.0236,0.0587,0.0527      l0.0294,0.6456c0.0117,0.2524,0.4167,0.8038,0.4167,0.8038s0.2523,0.4051,0.2993,0.9685      c0.0003,0.0031,0.0005,0.0062,0.0007,0.0092c0.0356,0.4382,0.3081,0.8197,0.6822,1.0504      c1.5977,0.9857,3.5945,1.7753,6.2358,3.3415c0,0,1.2133-5.4135,1.8866-7.4601c1.5404,1.0827,3.1919,2.0372,4.9046,2.7474      c-1.325,2.8623-3.1419,6.363-4.5201,8.621c-1.9413,3.1786-8.2807-3.9459-9.7475-5.6687      c-0.227-0.2666-0.5082-0.4812-0.8294-0.6208c-0.0522-0.0226-0.0938-0.0385-0.1151-0.0423      c-0.3756-0.0587-1.4847-0.9097-1.5316-0.9447c-0.0411-0.0352-1.4906-1.2148-1.4964-1.3673      C53.521,54.3168,53.6443,54.2111,53.8262,54.311z" fill="#ECB4BF"/><path d="M71.0614,56.9055c-1.5018,0.5354-4.8673-1.3406-4.9991-2.9017      c0.5043-2.0697,0.7159-3.4998,1.0832-4.4474c0.9199-2.4086,3.1741-3.4339,5.1544-1.7767      c1.3061,1.0885,1.7345,2.9074,1.0393,4.4593C72.5929,53.9082,72.0324,55.0091,71.0614,56.9055z" fill="#3887E5"/></g></g></g></g></svg>